<svg id="Camada_1" data-name="Camada 1" xmlns="http://www.w3.org/2000/svg" viewBox="0 0 61.57 43.09"><title>20191124-logo-ink</title><path d="M45,38.64a.48.48,0,0,0-.11.39c0,1.35,0,2.7,0,4a.66.66,0,0,1-.21.51Q42.47,45.81,40.26,48a.67.67,0,0,1-.52.22H34.18a.77.77,0,0,0-.67.28,1.2,1.2,0,0,1-.22.23c-.27.26-.3.27-.6.06a.14.14,0,0,0-.22,0,.92.92,0,0,1-1.31,0,.15.15,0,0,0-.25,0,.31.31,0,0,1-.52,0,1.5,1.5,0,0,0-1.4-.57c-2.6,0-5.19,0-7.79,0a2.39,2.39,0,0,1-2.48-2.48c0-2.25,0-4.51,0-6.76v-.33a.56.56,0,0,0-.29.22l-6.24,6.24c-.36.35-.41.35-.77,0l-6.5-6.5c-.35-.34-.35-.41,0-.75l2.72-2.71a.44.44,0,0,0,.14-.51A5.11,5.11,0,0,1,7.63,32a2.89,2.89,0,0,1,.42-1,.31.31,0,0,0-.19-.52l-.23-.06c-.16-.05-.24,0-.28.17s-.15.35-.47.29L5.5,30.69c-.32-.05-.39-.15-.35-.47s.11-.63.16-.94A.32.32,0,0,1,5.73,29l1.46.25c.24,0,.38.15.33.41s0,.24.19.28a.6.6,0,0,0,.72-.15,1,1,0,0,1,1.61.47c.07.21.15.34.38.36s.18.17.15.32-.09.25-.29.2a.65.65,0,0,0-.81.69,3.89,3.89,0,0,0,.2,1.06c.05.17.12.13.22,0l2.7-2.7c.12-.12.1-.18-.05-.24a2.39,2.39,0,0,0-.51-.13s-.13,0-.13-.07.08-.09.13-.09l.74,0c.24,0,.48,0,.72,0a.46.46,0,0,0,.43-.24.28.28,0,0,0,.05-.28c-.05-.1-.16-.06-.24-.06-.72,0-1.44,0-2.16,0s-1.4.05-2.09,0A12.12,12.12,0,0,1,8.14,29a3.62,3.62,0,0,0-.57,0c-.05-.11.15-.09.08-.19s-.12,0-.19-.05-.4-.09-.43,0c-.18.3-.52-.08-.69.19a.18.18,0,0,1-.12,0c-.23-.25-.51-.21-.82-.2a3.09,3.09,0,0,1-.86,0c-.35-.11-.68,0-1-.05-.06,0-.12,0-.12-.07a.09.09,0,0,1,.11-.09c.3,0,.63-.14.92.09.06.05.1,0,.17,0a.77.77,0,0,1,.72-.05.13.13,0,0,0,.18-.06c0-.06-.07-.06-.11-.06a16.61,16.61,0,0,1-1.87-.09c-.71,0-1.41-.15-2.13-.13-.07,0-.19,0-.18-.08s.12-.08.2-.08l2.8,0c3.5,0,7,0,10.49,0h.36a1.24,1.24,0,0,1-.24-.54c0-.12-.2-.1-.3-.08-.41.08-.84.05-1.25.17-.25.07-.42-.15-.6-.28s-.13-.13-.23-.11-.07,0-.09.05-.15.23-.29.09-.43-.13-.65-.05a.86.86,0,0,1-.42,0c-.2,0-.43.13-.61,0-.17.15-.29-.1-.45-.06s-.25,0-.37.09a.28.28,0,0,1-.27,0,3.77,3.77,0,0,0-1.49-.14c-.09,0-.23,0-.22-.11s.15-.11.25-.1a1.5,1.5,0,0,0,1,0,.49.49,0,0,1,.21,0,29.63,29.63,0,0,0,3,.05s.09,0,.11-.06-.12-.07-.18-.06a8.08,8.08,0,0,1-1,0c-.36,0-.7-.13-1.07-.13-.67,0-1.35-.13-2-.09a6.12,6.12,0,0,1-1.21,0c-.18,0-.35.07-.53,0s-.13,0-.13-.11a.1.1,0,0,1,.13-.1c.44.05.88-.05,1.32,0,1.79,0,3.58,0,5.37,0,.43,0,.86.06,1.29,0,.9-.05,1.8,0,2.73-.07-.1-.12-.2-.09-.29-.1l-2.46-.05a5.25,5.25,0,0,1-.56,0c-.09,0-.25.06-.26-.09a.34.34,0,0,1,.22-.3c.15-.06.31-.1.51-.16a2.2,2.2,0,0,0-1-.21,4.8,4.8,0,0,1-1.12-.12,2.47,2.47,0,0,0-1.08,0c-.14,0-.2,0-.25-.12s-.08-.17-.15,0a.17.17,0,0,1-.26.09c-.11-.06-.23,0-.34-.08s.12-.05.16-.13a.45.45,0,0,0-.42.08.4.4,0,0,1-.38.06s-.11,0-.09-.06c.1-.25-.1-.17-.19-.17H7.77c-.09,0-.18,0-.27-.07.09-.12.22-.09.33-.09l6.07-.06,1.85-.05c.11,0,.24,0,.25-.14s-.14-.11-.23-.11a.69.69,0,0,1-.4-.11.13.13,0,0,0-.1,0c-.7.08-1.41,0-2.12.07-.16,0-.3-.1-.46-.07s-.08,0-.08-.09,0-.07.09-.08a.11.11,0,0,1,.08,0c.72.21,1.45-.14,2.17,0a.21.21,0,0,0-.21-.08,17.17,17.17,0,0,1-2.38,0c-.45,0-.9,0-1.34,0a.4.4,0,0,1-.11,0c-.06,0-.14,0-.14-.1s.08-.08.14-.08c.42,0,.83,0,1.24,0,1.52,0,3-.08,4.56-.06h1.37v-.08h-2c-.12,0-.3.07-.32-.08s.16-.18.28-.22l.09,0-.53-.08s-.12,0-.12-.08.07-.08.12-.08l.26,0h1.06a2.84,2.84,0,0,0,.42-.05c.12,0,.24-.1.24-.22s-.14-.1-.22-.14a.87.87,0,0,0-.39,0,2,2,0,0,1-.68-.08c-.11,0-.2-.09-.21-.21s.08-.17.16-.21a1.36,1.36,0,0,1,.28-.11,4.5,4.5,0,0,1,1.42-.1c.15,0,.32,0,.35.22s-.14.2-.25.26l-.2.09c.65,0,1.25,0,1.86,0a.67.67,0,0,0,.47-.21.79.79,0,0,1,.89-.19,2.44,2.44,0,0,0,.66,0c.07,0,.14,0,.14-.11s-.08-.13-.16-.13c-.33,0-.66,0-1,.07A5.77,5.77,0,0,1,19,21.83a1.23,1.23,0,0,0-.27,0,.2.2,0,0,1-.21-.16c0-.1.05-.13.12-.16s.16-.1.12-.21.06-.15.09-.22a14.7,14.7,0,0,0-2.48-.27c-.23-.06-.47-.09-.7-.14-.06,0-.13,0-.13-.11s.06-.11.12-.12a12.77,12.77,0,0,0,1.89-.74,3.51,3.51,0,0,1,.94-.2.74.74,0,0,0,.44-.16c-.09-.07-.13,0-.19,0s-.12,0-.14,0,0-.1.08-.12.16,0,.11-.12-.11-.07-.19,0a2.66,2.66,0,0,1-.89.06c-.08,0-.21,0-.22-.08s.12-.08.19-.1l.15,0a.4.4,0,0,0-.34,0,8.38,8.38,0,0,1-1.71.42,3.62,3.62,0,0,1-1.57-.05c-1.34-.15-2.67-.37-4-.46a2.79,2.79,0,0,1-1-.17c-.13-.06-.3-.12-.29-.3s.16-.23.29-.28A6.43,6.43,0,0,1,11,17.69c.9-.07,1.8-.18,2.7-.29.2,0,.39-.06.34-.35,0-.13.1-.17.22-.17s.46-.28.44-.45-.16-.15-.26-.2-.28,0-.25-.15.2-.08.3-.07a14.64,14.64,0,0,0,3.32-.49,2.61,2.61,0,0,1-.37-.44.33.33,0,0,1,.18-.48,4.91,4.91,0,0,1,1.65-.3,31.75,31.75,0,0,1,3.38,0H23a.79.79,0,0,0-.49-.34c-.29-.12-.31-.18-.09-.4A2.62,2.62,0,0,1,23.91,13a7.44,7.44,0,0,0,1.46-.37c.24-.1.25-.24.13-.43a2.43,2.43,0,0,0-.2-.28c-.15-.17-.11-.31.06-.45a.94.94,0,0,1,.87-.14,1.77,1.77,0,0,1,.64.24.83.83,0,0,0,1-.1.92.92,0,0,1,.68-.2,4.32,4.32,0,0,0,1.52-.06c.22-.06.33-.15.23-.4s.06-.19.2-.16a2.29,2.29,0,0,1,1.06.57,3.91,3.91,0,0,0,2.35.72c.07,0,.16,0,.2-.06s-.06-.12-.09-.18c-.18-.38-.58-.54-.87-.82-.14-.12-.22-.24,0-.38a.27.27,0,0,1,.4.16c0,.15-.12.07-.16.14a.17.17,0,0,0,.18.12.27.27,0,0,1,.21.11,3,3,0,0,0,1.36.76c.11.05.26.09.34,0s-.06-.21-.12-.3-.22-.21-.12-.34a.35.35,0,0,1,.39-.09.81.81,0,0,1,.51.31l.24.28a.7.7,0,0,0,.92.23.89.89,0,0,1,1.15.54c.07.25.22.27.42.23l.15-.06c.46-.18.46-.18.76.22a.48.48,0,0,0,.54.24c.39-.08.77-.18,1.16-.27a15.77,15.77,0,0,1,2.17-.32c1.74-.17,3.48-.27,5.23-.33s3.6-.11,5.4-.11c.57,0,1.14,0,1.7,0s.93,0,1.39.1a6.11,6.11,0,0,0,.86.07.41.41,0,0,1,.27,0c0,.4-.32.4-.62.39a3.48,3.48,0,0,1,1,.11s.11,0,.1-.08,0-.13-.13-.13-.15,0-.18-.07a.11.11,0,0,1,.05-.09.15.15,0,0,1,.19,0c.13.14.23.11.38,0s.31-.14.42.06,0,.16,0,.13c-.2-.12-.28.09-.42.13.41,0,.81.19,1.23,0-.09.17,0,.19.15.16a.85.85,0,0,1,.42,0c.09,0,.18.08.09.19a.44.44,0,0,1-.53,0c-.09-.15-.2-.08-.29,0-.25.16-.25.17-.39-.06-.11.18-.08.3.11.3a8.41,8.41,0,0,1,1.5.26c.42.07.86.12,1.27.23,0,.1-.07.1-.13.1a13.79,13.79,0,0,1-1.82,0c-.31,0-.63,0-.95,0-1.77-.05-3.55-.14-5.32-.15-1.56,0-3.12.05-4.69.1-1.24,0-2.48.1-3.73.16s-2.51.14-3.77.21c-.12,0-.26,0-.25.16a.28.28,0,0,0,.2.31,1.85,1.85,0,0,0,.62,0c.59,0,1.17-.11,1.77-.07.35,0,.74-.07,1.09,0a9.19,9.19,0,0,0,1.05,0,5.47,5.47,0,0,0,.91,0,4.45,4.45,0,0,1,1.5,0,.92.92,0,0,0,.57,0c.16-.06.32,0,.47,0,.46,0,.91,0,1.36,0s.9,0,1.34.06a.2.2,0,0,1,.14.11c0,.08.09.08.13,0a.16.16,0,0,1,.21-.07c.24.06.48,0,.73.05a4.18,4.18,0,0,0,1,0,.53.53,0,0,1,.53.33.24.24,0,0,0,.37.14.33.33,0,0,1,.43,0c.09-.11-.11-.14,0-.21s.14,0,.21,0,.37-.09.58,0c-.08.14-.2.14-.33.17s0,.06,0,.06a13,13,0,0,0,1.39.08.74.74,0,0,1,.44,0c.06,0,.1.06.09.12a.11.11,0,0,1-.14.1l-.23-.05c-.06,0-.14,0-.18,0-.19.12-.38.25-.52-.06a.1.1,0,0,0-.08,0c-1,.16-2.1.05-3.18.24a.84.84,0,0,0,.72.08c.08,0,.14-.07.23,0a1.34,1.34,0,0,0,.56.08c.47.07.94,0,1.4.1s.73.14,1.1.21c0,0,.06,0,.07,0a.76.76,0,0,1,.69,0,2.44,2.44,0,0,0,.81,0,1.86,1.86,0,0,1,.86.22,1.47,1.47,0,0,1-.77.05,12.07,12.07,0,0,1-1.59,0,16.18,16.18,0,0,0-2.51,0c-.35,0-.7-.08-1,0a19.87,19.87,0,0,0-2,0c.29.13.49.37.8.2a10.1,10.1,0,0,0,1.64.22c.06,0,.15.05.13.11s0,.49-.25.61-.16.2,0,.31a1.29,1.29,0,0,0,.59.28c.07,0,.17,0,.17.09s-.11.1-.18.11a6.27,6.27,0,0,1-1.3.08c-.14,0-.35-.08-.3.22,0,.05-.07.1-.13.12s-.12.06,0,.1a.06.06,0,0,1,0,.09.13.13,0,0,1-.16,0c-.07,0-.16-.08-.17,0s.09.08.15.08c.22,0,.21.16.19.26s.07.3.25.33.16,0,.14.11-.1.09-.17.1c-.26,0-.53.05-.79.05-1.4,0-2.81.1-4.26,0,.16.1.41,0,.38.27,0,.06.08,0,.13,0a3,3,0,0,1,1.25.3.24.24,0,0,0,.12,0c.64,0,1.28,0,1.91,0a11.66,11.66,0,0,1,1.87.09c.12,0,.17.12.21.19s-.08.11-.13.16a1.29,1.29,0,0,1-.48.25.44.44,0,0,0,.27,0c1.35,0,2.7.09,4.05.07.46,0,.92-.07,1.38-.07.07,0,.21-.06.21.07s-.14.1-.22.1a1,1,0,0,0-.51.1s-.1,0-.11.06.06.08.1.11a.72.72,0,0,0,.6.12c.15,0,.29-.05.37.15s.21.13.34.15.1,0,.1.08,0,.07-.1.07a1.38,1.38,0,0,1-.29,0,7.83,7.83,0,0,0-1.36.13,12.17,12.17,0,0,1-1.71.08c-.49,0-1,.11-1.5.13.2.11.43.07.47.29.23-.09.31.25.53.19a.12.12,0,0,1,.15.11c0,.09-.08.11-.15.12l-1.66.17c-.08,0-.21,0-.21-.09s.13-.08.21-.08a.41.41,0,0,0,.37-.14l-2.38.13v.08a4.77,4.77,0,0,1,1.46.08,10.29,10.29,0,0,1-2.25.13c.17.1.37,0,.37.11s-.17.21-.32.28a.65.65,0,0,1,.39.39c0,.09,0,.15-.06.19s-.09.14,0,.2a1.14,1.14,0,0,0,.57.19l.21,0c.08,0,.17,0,.19.12s-.06.16-.13.22l-.16.1a1.57,1.57,0,0,1,.45.34.46.46,0,0,1-.15.8c-.18.09-.29.16-.25.38s-.12.33-.25.44a.58.58,0,0,0-.24.65c0,.19-.12.2-.23.22a10.92,10.92,0,0,0-1.14.22c-.28.08-.55.15-.62.49,0,.12-.12.12-.21.11a2.52,2.52,0,0,0-1.71.43.86.86,0,0,1-.79.1,1.4,1.4,0,0,0-1.1.11l-.48.23a.81.81,0,0,1-.87-.09.54.54,0,0,0-.42-.11,5.74,5.74,0,0,0-.83.13.23.23,0,0,0-.21.25v5s0,.07,0,.09.15-.11.22-.17q2.52-2.54,5.06-5.06c.34-.34.39-.34.74,0l2.7,2.7c.23.22.24.22.33-.1a3.31,3.31,0,0,0,.16-1,.65.65,0,0,0-.79-.63c-.2,0-.27,0-.31-.21s0-.29.18-.31.29-.14.34-.34a1,1,0,0,1,1.73-.4c.22.3.45.07.67,0s.13-.2.12-.34a.28.28,0,0,1,.27-.31c.52-.1,1.06-.19,1.59-.27a.29.29,0,0,1,.35.27c.07.34.12.68.17,1a.32.32,0,0,1-.3.41l-1.51.25a.29.29,0,0,1-.38-.27c0-.24-.15-.26-.35-.2s-.26,0-.34.13a.3.3,0,0,0-.05.41A3.92,3.92,0,0,1,56,34a2.73,2.73,0,0,1-.16.64.47.47,0,0,0,.17.6l2.72,2.71c.28.28.28.38,0,.66L52.15,45.2c-.28.28-.37.28-.65,0l-6.28-6.28A2.83,2.83,0,0,1,45,38.64ZM31.83,28.58H20.41c-.36,0-.36,0-.36.35V36.5a.93.93,0,0,0,0,.24c.07.28.28.34.48.14s.39-.38.58-.58.34-.26.62,0c.08.07.14.13.25,0s0-.19-.06-.26-.37-.37-.56-.56a.31.31,0,0,1,0-.49l.65-.65a.29.29,0,0,1,.46,0l1.84,1.84c.16.16.14.3,0,.46l-.66.65a.29.29,0,0,1-.48,0l-.6-.6c-.06-.06-.12-.11-.2,0s-.1.15,0,.23l.05.05c.2.24.2.35,0,.57l-.13.13c-.16.12-.16.23,0,.37.31.29.6.59.9.89s.3.36.55.12c.05-.05.16,0,.23,0s.41,0,.61,0a.73.73,0,0,1,.6.26c1.07,1.07,2.12,2.15,3.21,3.2A1.66,1.66,0,0,1,29.08,44a.31.31,0,0,0,0,.08.4.4,0,0,1-.11.39c-.13.11-.09.2,0,.3l.84.84a.45.45,0,0,1,.16.42c-.09.45.17.73.64.71.1,0,.22-.05.3,0a.51.51,0,0,0,.44.12c.31,0,.62,0,.93,0,.08,0,.18,0,.23,0a.62.62,0,0,1,.54-.13.53.53,0,0,0,.54-.65.51.51,0,0,1,.16-.5c.28-.26.54-.54.81-.8.12-.11.18-.21,0-.34a.38.38,0,0,1-.11-.29c0-.25,0-.49,0-.74a.65.65,0,0,1,.2-.45l3.78-3.78a.49.49,0,0,1,.32-.18L39.7,39a.46.46,0,0,1,.32.1c.11.11.19.07.29,0l1-1c.26-.25.26-.25,0-.51s-.29-.35,0-.66c.07-.09.1-.16,0-.25s-.15,0-.22,0l-.58.58a.29.29,0,0,1-.48,0c-.22-.22-.43-.44-.66-.65a.29.29,0,0,1,0-.48l1.8-1.8a.3.3,0,0,1,.48,0l.65.66a.32.32,0,0,1,0,.51l-.52.52c-.07.07-.22.13-.08.27s.2,0,.29-.06.32-.19.54,0l.62.61c.06.06.12.2.22.15a.44.44,0,0,0,.27-.31,2.44,2.44,0,0,0,0-.27V29c0-.38,0-.38-.38-.38Zm0-5.62H21c-.68,0-1,.27-1,.94v3c0,.66.29.94,1,.94H42.68a.8.8,0,0,0,.9-.89V23.84a.86.86,0,0,0-.19-.61.88.88,0,0,0-.74-.27Zm-3.38,24,0-.07-.78-.75c-.11-.12-.2-.15-.32,0a.49.49,0,0,1-.42.11,4.32,4.32,0,0,0-.5,0,.77.77,0,0,1-.63-.27c-1.15-1.15-2.29-2.31-3.45-3.44a1.39,1.39,0,0,1-.49-1.11c0-.25-.07-.51.14-.72s0-.13-.05-.18l-1.13-1.13c-.09-.09-.17-.1-.26,0s-.19.24-.31.28-.24.27-.24.47c0,1.9,0,3.8,0,5.7A1.08,1.08,0,0,0,21.21,47c2.32,0,4.65,0,7,0Zm12.74-5.5c0-.43,0-.43-.25-.69s-.69-.69-1-1a.89.89,0,0,0-1.07,0l-3.59,3.59a.89.89,0,0,0,0,1.08l1.05,1.05a.87.87,0,0,0,1.24,0c1.12-1.12,2.23-2.24,3.36-3.35A.69.69,0,0,0,41.18,41.44Zm-18.74-.12c0,.25,0,.43.14.59,1.2,1.19,2.39,2.4,3.6,3.59a.9.9,0,0,0,1.08,0l1.09-1.09a.87.87,0,0,0,0-1.13L27.2,42.09l-2.34-2.34a.87.87,0,0,0-1.16,0c-.34.33-.66.67-1,1S22.38,41.12,22.44,41.32Zm27.75-8.59-.13.11-3.67,3.67c-.12.11-.11.18,0,.29l1.89,1.89c.11.12.19.12.3,0l3.65-3.64c.13-.13.14-.22,0-.35l-1.86-1.85A.29.29,0,0,0,50.19,32.73ZM14,40c0-.1-.08-.15-.13-.2l-3.63-3.63c-.12-.12-.19-.14-.32,0-.62.63-1.24,1.25-1.87,1.87-.12.12-.13.2,0,.32L11.67,42c.11.12.2.14.32,0l1.87-1.87A1.1,1.1,0,0,0,14,40Zm37.85,2.11.14-.1q1.83-1.84,3.67-3.67c.1-.1.11-.18,0-.28l-1.91-1.91c-.1-.11-.17-.12-.28,0l-3.68,3.69c-.12.12-.11.19,0,.3.63.62,1.25,1.25,1.87,1.87A.27.27,0,0,0,51.82,42.15Zm-34.46-5.5-.12-.14-.62-.62c-1-1-2-2-3-3-.2-.2-.32-.19-.48,0a2.72,2.72,0,0,1-.29.3l-1.5,1.5c-.12.11-.11.2,0,.31q1.84,1.83,3.67,3.67c.11.11.19.11.3,0l1.89-1.89A1,1,0,0,0,17.36,36.65Zm40.1,1.45a.41.41,0,0,1-.19.3l-5.2,5.22c-.36.36-.43.36-.78,0L44.6,36.93c-.2-.19-.28-.19-.41,0s0,.24.13.32l7.28,7.29c.18.18.27.19.45,0l6-6c.25-.26.25-.26,0-.51q-3.63-3.61-7.24-7.24a1.59,1.59,0,0,1-.13-.13c-.1-.11-.18-.05-.26,0s-.17.15-.05.27.11.11.17.17l6.67,6.67A.57.57,0,0,1,57.46,38.1ZM11.83,44.73l.17-.15,2.32-2.32,5-5c.14-.14.2-.23,0-.39s-.25,0-.34.09l-5,5-1.8,1.8a.33.33,0,0,1-.53,0l-.19-.18q-2.51-2.53-5-5c-.42-.42-.42-.42,0-.85l6.64-6.63c.11-.12.23-.21,0-.39s-.26,0-.36.08Q9.16,34.4,5.51,38c-.18.18-.17.28,0,.45.61.58,1.19,1.18,1.79,1.77q2.15,2.16,4.29,4.29C11.66,44.62,11.71,44.71,11.83,44.73Zm23.29,2.19.15,0c1.34,0,2.68,0,4,0,.28,0,.41-.14.41-.43,0-.53,0-1.06,0-1.59a1.74,1.74,0,0,1,1.88-1.84h1.56c.28,0,.42-.14.42-.4,0-.92,0-1.84,0-2.76,0-.08,0-.18-.1-.22a1.47,1.47,0,0,1-.43-.35c-.09-.1-.17-.13-.28,0l-1.13,1.13s-.11.1-.06.15c.27.33.12.69.12,1a.84.84,0,0,1-.29.65c-1.11,1.1-2.23,2.2-3.32,3.32a1.33,1.33,0,0,1-1.22.56l-.16,0a.53.53,0,0,1-.51-.13c-.06-.07-.13-.1-.2,0ZM30.85,17.5a.3.3,0,0,1,.14.24c.22.94.45,1.87.67,2.81.07.26.17.3.56.26.22,0,.17-.19.17-.32,0-1.9,0-3.79,0-5.69,0-.3-.14-.32-.37-.32s-.38,0-.37.32c0,.92,0,1.84,0,2.75a.55.55,0,0,1,0,.28.64.64,0,0,1-.1-.27c-.22-.94-.43-1.87-.65-2.81-.07-.28-.15-.31-.58-.26-.24,0-.17.2-.17.33,0,1.85,0,3.69,0,5.54,0,.46,0,.45.47.45.22,0,.27-.09.27-.29,0-.76,0-1.53,0-2.3Zm7.7.77a.25.25,0,0,1,.11.22c.11.59.21,1.18.31,1.78s0,.52.65.54c.24,0,.28-.07.23-.29-.24-1-.46-2.05-.7-3.07a1,1,0,0,1,0-.52c.21-.66.41-1.31.61-2,.14-.47.14-.46-.36-.48-.28,0-.38.1-.44.36-.16.67-.34,1.34-.52,2,0,.06,0,.14-.1.17a.45.45,0,0,1,0-.28v-2c0-.08,0-.21-.07-.24a.93.93,0,0,0-.57,0c-.15,0-.09.21-.09.33V20c0,.2,0,.4,0,.6s.06.27.25.26H38c.24,0,.34-.06.33-.32,0-.45,0-.9,0-1.35A2.43,2.43,0,0,1,38.55,18.27ZM32,13.92h7.76c.18,0,.33,0,.33-.25s-.17-.25-.34-.24H24.23c-.14,0-.33-.08-.35.2s.07.3.3.3ZM18.81,36.37a.27.27,0,0,0-.12-.18q-2.42-2.41-4.82-4.84c-.13-.12-.21-.11-.33,0s-.47.46-.68.7-.37.18-.17.38.27-.08.36-.16c.33-.3.39-.31.7,0l3.91,3.91c.46.46.46.46,0,.93-.07.07-.19.13-.07.26s.19,0,.27-.05l.82-.82A1.71,1.71,0,0,0,18.81,36.37Zm27.07,1.07a.2.2,0,0,0,.17-.1.1.1,0,0,0,0-.14L45.84,37c-.31-.31-.31-.38,0-.69l3.89-3.89c.47-.47.47-.47,1,0,.09.08.16.14.26,0s0-.17-.05-.24c-.26-.27-.54-.53-.8-.81s-.24-.14-.38,0l-2.28,2.28c-.83.83-1.66,1.67-2.49,2.49-.13.13-.17.23,0,.37s.55.55.83.82ZM53,34.88c0,.15-.12.23-.21.32L49,39.06c-.5.5-.5.5-1,0-.07-.06-.13-.12-.22,0s-.08.15,0,.22l1.46,1.46c.07.07.13.08.2,0s.08-.13,0-.2l-.13-.14c-.37-.37-.37-.4,0-.78l2.58-2.58c.5-.5,1-1,1.5-1.5a.29.29,0,0,1,.49,0l.27.26c.07.08.14.08.22,0a.13.13,0,0,0,0-.22l-.38-.37-1.07-1.07c-.08-.08-.15-.11-.24,0s-.05.15,0,.22l.23.23A.41.41,0,0,1,53,34.88ZM16,39.19a.24.24,0,0,0-.11-.16c-.06,0-.1,0-.14,0l-.23.23c-.27.26-.36.26-.63,0l-1.5-1.5-2.62-2.62c-.23-.24-.23-.34,0-.58l.22-.22c.08-.08.1-.14,0-.23s-.14-.07-.22,0l-.28.28L9.33,35.58c-.09.08-.11.15,0,.24s.15.06.22,0l.19-.19c.27-.27.35-.27.63,0l3.89,3.89c.48.48.48.48,0,1-.07.08-.12.15,0,.25s.16,0,.22,0l1.43-1.43A.76.76,0,0,0,16,39.19Zm9-21.54c0-1,0-1.91,0-2.86,0-.29-.13-.31-.36-.31s-.39,0-.38.3c0,1.91,0,3.82,0,5.72,0,.32.16.31.38.31s.36,0,.36-.3C25,19.55,25,18.6,25,17.65ZM55.6,33a3.23,3.23,0,0,0-.36-1.51c-.05-.08-.1-.17-.21-.1s-.35,0-.34.22a4.29,4.29,0,0,1-.33,1.7.23.23,0,0,0,.07.28l.76.77c.13.13.19.09.22-.07A7.18,7.18,0,0,0,55.6,33ZM8,33a7.93,7.93,0,0,0,.18,1.27c0,.21.12.22.26.07s.44-.46.67-.67a.35.35,0,0,0,.1-.44,3.47,3.47,0,0,1-.3-1.52c0-.3-.21-.23-.34-.31s-.18.05-.23.14A3.3,3.3,0,0,0,8,33ZM33,48.28l.16-.15,2.19-2.19c.41-.41.43-.29,0-.75-.12-.12-.21-.14-.33,0s-.47.48-.71.71a.48.48,0,0,0-.13.34,1,1,0,0,1-.87,1.06c-.39.05-.48.32-.62.58S32.85,48.28,33,48.28ZM31,48a.91.91,0,0,0-.52-.64,1.06,1.06,0,0,1-1-.95.84.84,0,0,0-.31-.66c-.13-.11-.24-.24-.36-.35-.38-.38-.27-.38-.68,0-.19.18-.15.28,0,.44l2.36,2.35c.06.06.11.17.21.11A.68.68,0,0,0,31,48Zm20.69-4.76A.42.42,0,0,0,51.9,43l4.72-4.71.09-.1c.08-.07.1-.14,0-.22s-.34-.33-.5-.5-.15-.06-.23,0-.06.14,0,.2l.17.17c.32.32.32.39,0,.71l-3.93,3.93c-.43.43-.44.43-.88,0l-.07-.08a.15.15,0,0,0-.23,0c-.09.09-.05.15,0,.22l.47.47ZM7.49,37.44l-.09.07a4.93,4.93,0,0,1-.4.39c-.18.15-.16.25,0,.42,1.58,1.56,3.15,3.14,4.72,4.71l.13.13a.12.12,0,0,0,.19,0l.54-.54a.11.11,0,0,0,0-.18c-.06-.06-.11-.1-.18,0l-.21.2c-.3.3-.39.3-.69,0L8.6,39.73,7.37,38.5c-.2-.21-.2-.32,0-.52l.28-.28c.05-.05.08-.1,0-.16A.2.2,0,0,0,7.49,37.44Zm15,2.7c.16-.08.26-.25.4-.36s.16-.23,0-.37-.51-.51-.77-.76c-.46-.46-.45-.46-.9,0-.11.12-.1.19,0,.3L22.33,40A.22.22,0,0,0,22.51,40.14Zm18.65,0a.33.33,0,0,0,.16-.11l.76-.77c.48-.47.47-.47,0-.92-.1-.09-.17-.1-.27,0l-1.1,1.1c-.12.12-.1.21,0,.31l.3.3A.22.22,0,0,0,41.16,40.14ZM20.05,38.5v.23c0,.09,0,.21.06.25s.16-.08.22-.14l1.29-1.29c.33-.33.32-.32,0-.65-.13-.13-.21-.13-.34,0-.31.33-.62.65-1,1A.66.66,0,0,0,20.05,38.5Zm23.52.07a.73.73,0,0,0-.29-.74c-.28-.24-.53-.52-.79-.78s-.31-.31-.63,0c-.15.15-.14.23,0,.36.45.43.89.88,1.33,1.32.1.1.2.29.31.25S43.55,38.71,43.57,38.57ZM18.65,35.4l.07,0v-1.5a.17.17,0,0,0-.18-.19H17.17c-.13,0-.16.07-.06.17Zm17-14h-3s-.11,0-.14.05.19.44.29.44h2.54a.19.19,0,0,0,.21-.15C35.59,21.61,35.63,21.52,35.67,21.38Zm-7.7,0c.19.56.06.48.59.49.69,0,1.38,0,2.06,0,.25,0,.39,0,.45-.3s0-.2-.14-.2H28Zm10.56,0H37.26c-.06,0-.15,0-.18.05s.19.44.34.44h2.35c.17,0,.26,0,.26-.24s-.07-.26-.26-.26Zm-13.37.49c.31,0,.62,0,.92,0s.38-.07.45-.32,0-.18-.14-.17H24.1c-.2,0-.21.11-.21.26s0,.25.21.24C24.46,21.86,24.81,21.87,25.16,21.87Zm-9.74,10.2c.14.19.23.42.51.42.84,0,1.69,0,2.53,0,.14,0,.26,0,.26-.19s-.13-.18-.26-.19l-1.92,0Zm8.36,4.33-.12-.14c-.41-.41-.83-.82-1.23-1.24-.14-.15-.23-.1-.34,0s-.22.2-.05.37c.42.4.82.82,1.24,1.23,0,0,.12.16.21.08A.89.89,0,0,0,23.78,36.4Zm16,.05c.11.09.21.19.33.27s.16,0,.22-.08c.41-.41.81-.83,1.23-1.23.17-.17,0-.25-.05-.37s-.2-.16-.34,0c-.4.42-.82.83-1.23,1.24ZM6.65,30.35c.09,0,.16,0,.19-.06a.72.72,0,0,0,.09-.45c0-.16-.19-.13-.31-.15l-.36-.06c-.48-.08-.48-.08-.53.39,0,.1,0,.17.11.19Zm51.07-.78c-.29.05-.53.1-.76.12s-.3.12-.24.35.08.34.41.28l.39-.06c.43-.08.46-.13.33-.55C57.82,29.6,57.77,29.55,57.72,29.57Zm-3.15.49a.44.44,0,0,0-.49.43.46.46,0,0,0,.44.49.46.46,0,1,0,0-.92Zm-45.49,0a.45.45,0,0,0-.46.46.47.47,0,1,0,.93,0A.43.43,0,0,0,9.08,30.06Zm8-2.52c.18.28.36.5.75.41s.66.05.85-.34A3.75,3.75,0,0,0,17.06,27.54Zm34.37,5.22a.24.24,0,0,0-.15.13c0,.08,0,.12.06.16l.69.69c.07.07.14.13.24,0s.06-.17,0-.24l-.69-.69S51.49,32.76,51.43,32.76Zm-39.06.18a.26.26,0,0,0-.13-.16c-.07-.05-.11,0-.16,0-.23.24-.46.48-.7.71-.08.08-.11.15,0,.24s.17,0,.25,0l.67-.67A1.25,1.25,0,0,0,12.37,32.94ZM8.1,37.2l.05,0L9,36.36c.06-.07,0-.13-.05-.18s-.12-.07-.18,0L8,36.92s-.07.1,0,.16A.32.32,0,0,0,8.1,37.2ZM55.69,37a.61.61,0,0,0-.07-.1l-.71-.71a.13.13,0,0,0-.2,0c-.08.07-.1.14,0,.22l.75.75s.08.07.14,0A.23.23,0,0,0,55.69,37Zm-38.56.71s-.05,0-.06,0l-.81.8c-.05.06,0,.11,0,.16a.12.12,0,0,0,.2,0l.75-.75s.07-.08,0-.14A.2.2,0,0,0,17.13,37.71ZM13,42.13l.05,0c.27-.27.55-.54.81-.82.07-.07,0-.13-.05-.18a.1.1,0,0,0-.16,0l-.77.77a.1.1,0,0,0,0,.14A.2.2,0,0,0,13,42.13Zm34.35-3.54s0,0,0,0c-.28-.28-.55-.57-.84-.84,0,0-.11,0-.16.05a.1.1,0,0,0,0,.16l.79.78a.1.1,0,0,0,.16,0S47.39,38.65,47.39,38.59Zm2.48,2.48a.17.17,0,0,0-.14.1c0,.07,0,.12,0,.17l.74.74a.12.12,0,0,0,.17,0c0-.05.13-.11.06-.18-.27-.29-.55-.56-.83-.84Z" transform="translate(-1.22 -10.45)"/><path d="M33.11,52.27a1.26,1.26,0,0,1-.75,1.15A1.21,1.21,0,0,1,31,53.21a1.16,1.16,0,0,1-.4-1.31,7.69,7.69,0,0,1,1.08-2c.08-.12.2-.16.3,0A7.38,7.38,0,0,1,33.08,52,1.24,1.24,0,0,1,33.11,52.27Zm-2.24,0a1,1,0,0,0,.67.87c.09,0,.18,0,.22-.08s0-.16-.11-.18a.7.7,0,0,1-.49-.65c0-.09-.05-.19-.16-.18S30.87,52.15,30.87,52.25Z" transform="translate(-1.22 -10.45)"/><path d="M11.45,21a2.63,2.63,0,0,1-1-.1c-.08,0-.16-.05-.17-.14a.17.17,0,0,1,.13-.18.75.75,0,0,1,.25-.09,4.57,4.57,0,0,1,1.52,0c.11,0,.24.06.25.2s-.13.17-.23.21A2,2,0,0,1,11.45,21Z" transform="translate(-1.22 -10.45)"/><path d="M13.3,21.21l-.54-.09c-.11,0-.22-.09-.23-.23s.1-.2.21-.24a2.6,2.6,0,0,1,1.41-.07c.21,0,.24.24.06.4S13.64,21.16,13.3,21.21Z" transform="translate(-1.22 -10.45)"/><path d="M30.78,36.33a2.58,2.58,0,0,1,2.8-.81,2.33,2.33,0,0,1,1.9,1.9,7.48,7.48,0,0,1,0,3.52,3.11,3.11,0,0,1-2.82,2.42,6.9,6.9,0,0,1-2,0,3.05,3.05,0,0,1-2.51-2.67,19.32,19.32,0,0,1-.19-4.3,11.4,11.4,0,0,1,.23-2.26,3.19,3.19,0,0,1,3.31-2.67,6.12,6.12,0,0,1,2.09.2,2.61,2.61,0,0,1,1.89,2.59c0,.18-.06.26-.24.26H32.93c-.16,0-.24-.07-.24-.24s0-.21,0-.31a.75.75,0,0,0-.66-.7.88.88,0,0,0-.9.42,2.51,2.51,0,0,0-.3,1.2C30.76,35.33,30.78,35.85,30.78,36.33Zm2,3.21a5.15,5.15,0,0,0-.12-1.36.75.75,0,0,0-.58-.6.88.88,0,0,0-1.17.74A5.53,5.53,0,0,0,31,40.94a.84.84,0,0,0,1.64,0A4.19,4.19,0,0,0,32.81,39.54Z" transform="translate(-1.22 -10.45)"/><path d="M32,25.45c0-.32,0-.64,0-.95s.06-.33.29-.3.36-.07.52.09.11,0,.16-.05a.67.67,0,0,1,1.06.62c0,.53,0,1.06,0,1.58,0,.21-.08.28-.28.28-.54,0-.54,0-.54-.52V25.09c0-.14,0-.32-.18-.32s-.22.18-.22.33c0,.43,0,.87,0,1.3,0,.24-.07.33-.32.33-.5,0-.5,0-.5-.49Z" transform="translate(-1.22 -10.45)"/><path d="M36.34,25.21c0,.4,0,.4-.4.4h-.59c-.13,0-.25,0-.23.2s0,.38.2.44.21-.1.25-.24.32-.28.62-.2.13.24.09.37c-.12.44-.52.65-1.1.59a.88.88,0,0,1-.83-.88,3.93,3.93,0,0,1,0-.84.94.94,0,0,1,1-.93.89.89,0,0,1,1,1Z" transform="translate(-1.22 -10.45)"/><path d="M31.67,25.48c0,.33,0,.67,0,1,0,.17-.07.26-.24.24s-.4.1-.56-.13c0-.05-.08,0-.12.05a.71.71,0,0,1-.78.05.61.61,0,0,1-.3-.63c0-.53,0-1.06,0-1.59,0-.21.08-.28.28-.27.58,0,.5,0,.51.49,0,.38,0,.76,0,1.14,0,.14,0,.31.2.31s.23-.16.23-.31c0-.42,0-.85,0-1.27s0-.36.37-.36h0c.38,0,.38,0,.38.38Z" transform="translate(-1.22 -10.45)"/><path d="M28.46,24.73c0-.34,0-.68,0-1s.05-.3.28-.3c.62,0,.54,0,.55.54s0,1.17,0,1.75a1,1,0,0,1-1.52,1,.89.89,0,0,1-.51-.91c0-.1.07-.16.17-.16s.23,0,.35,0,.26.05.25.24a.8.8,0,0,0,0,.15c0,.09.08.17.18.18s.17-.08.2-.17a1.39,1.39,0,0,0,0-.5Z" transform="translate(-1.22 -10.45)"/></svg>